<?xml version="1.0" standalone="no"?>
<!DOCTYPE svg PUBLIC "-//W3C//DTD SVG 20010904//EN"
 "http://www.w3.org/TR/2001/REC-SVG-20010904/DTD/svg10.dtd">
<svg version="1.0" xmlns="http://www.w3.org/2000/svg"
 width="400.000000pt" height="200.000000pt" viewBox="0 0 400.000000 200.000000"
 preserveAspectRatio="xMidYMid meet">

<g transform="translate(0.000000,200.000000) scale(0.100000,-0.100000)"
fill="#000000" stroke="none">
<path d="M1587 1783 c-37 -39 -74 -126 -88 -207 -16 -95 -6 -300 19 -396 l20
-75 -38 -135 c-51 -177 -156 -482 -186 -543 -14 -26 -32 -51 -40 -54 -42 -16
-95 91 -158 317 -69 247 -85 296 -105 314 -40 37 -91 -20 -220 -246 -100 -174
-198 -326 -292 -449 -79 -104 -102 -113 -120 -46 -31 114 34 563 146 1002 66
261 133 420 183 440 20 8 42 -19 35 -44 -5 -21 24 -49 37 -35 21 22 -32 114
-66 114 -47 0 -122 -134 -173 -310 -115 -400 -194 -829 -195 -1050 -1 -139 11
-182 52 -188 36 -5 64 19 140 121 96 129 170 242 282 435 110 190 156 250 176
230 7 -7 38 -103 68 -214 67 -245 106 -350 147 -392 80 -81 121 -21 244 353
28 88 63 198 76 245 l23 86 31 -45 c35 -51 70 -80 104 -83 35 -4 37 19 2 27
-34 7 -71 47 -102 107 l-20 39 35 142 c71 287 96 456 77 525 -10 37 -15 42
-40 42 -17 0 -37 -10 -54 -27z m69 -29 c10 -39 -3 -148 -36 -306 -43 -206 -65
-285 -72 -266 -32 82 -34 366 -4 464 18 59 69 134 91 134 8 0 18 -12 21 -26z"/>
<path d="M3227 1403 c-23 -26 -64 -159 -83 -271 -10 -53 -19 -99 -21 -101 -2
-3 -13 5 -26 17 -59 55 -126 23 -148 -72 -6 -30 -9 -69 -5 -89 8 -42 41 -87
64 -87 22 1 58 28 80 62 17 26 17 26 18 -40 1 -54 5 -68 22 -83 30 -24 56 -14
103 40 39 43 99 148 99 171 0 26 -21 4 -55 -56 -45 -80 -91 -134 -115 -134
-46 0 -34 145 25 330 55 167 85 277 85 307 0 27 -21 30 -43 6z m-166 -363 c10
-6 26 -24 34 -41 15 -28 15 -33 -6 -74 -12 -24 -35 -56 -50 -71 -23 -22 -31
-25 -43 -15 -35 29 -28 150 10 192 20 22 28 23 55 9z"/>
<path d="M2256 1056 c-71 -74 -74 -220 -7 -256 30 -16 83 -12 117 9 34 21 144
130 144 143 0 21 -31 3 -80 -48 -63 -63 -96 -84 -138 -84 -38 0 -53 19 -60 75
-6 54 19 128 51 150 31 21 36 19 53 -20 16 -40 34 -46 34 -11 0 31 -36 76 -62
76 -11 0 -35 -15 -52 -34z"/>
<path d="M1945 1044 c-45 -45 -70 -142 -50 -191 12 -29 18 -33 53 -33 27 0 51
9 80 30 52 37 100 106 85 121 -8 8 -20 -3 -42 -34 -53 -77 -141 -115 -154 -66
-12 44 3 73 44 91 45 19 69 59 49 83 -16 19 -44 19 -65 -1z m45 -24 c0 -9 -32
-30 -46 -30 -4 0 1 9 11 20 19 21 35 26 35 10z"/>
<path d="M3475 1044 c-45 -45 -70 -142 -50 -191 12 -29 18 -33 53 -33 27 0 51
9 80 30 52 37 100 106 85 121 -8 8 -20 -3 -42 -34 -53 -77 -141 -115 -154 -66
-12 44 3 73 44 91 45 19 69 59 49 83 -16 19 -44 19 -65 -1z m45 -24 c0 -9 -32
-30 -46 -30 -4 0 1 9 11 20 19 21 35 26 35 10z"/>
<path d="M2613 1030 c-14 -6 -23 -18 -23 -30 0 -12 -7 -34 -15 -50 -9 -16 -18
-49 -21 -72 -7 -55 19 -88 72 -88 39 0 84 38 84 71 0 14 10 20 39 25 45 7 99
37 108 59 10 27 -5 28 -39 2 -18 -14 -48 -28 -65 -32 -32 -6 -33 -5 -33 24 0
46 -19 79 -53 91 -16 5 -30 10 -31 9 -1 0 -11 -4 -23 -9z m55 -36 c14 -10 22
-25 22 -45 l0 -30 -30 16 c-37 19 -54 47 -38 63 15 15 19 15 46 -4z m-6 -93
c21 -8 26 -15 21 -28 -10 -30 -35 -53 -58 -53 -42 0 -57 42 -33 95 10 22 13
23 27 11 9 -8 28 -19 43 -25z"/>
</g>
</svg>
